<?xml version="1.0" encoding="UTF-8" standalone="no"?>
<!-- Created with Inkscape (http://www.inkscape.org/) -->

<svg
   xmlns:dc="http://purl.org/dc/elements/1.1/"
   xmlns:cc="http://creativecommons.org/ns#"
   xmlns:rdf="http://www.w3.org/1999/02/22-rdf-syntax-ns#"
   xmlns:svg="http://www.w3.org/2000/svg"
   xmlns="http://www.w3.org/2000/svg"
   xmlns:sodipodi="http://sodipodi.sourceforge.net/DTD/sodipodi-0.dtd"
   xmlns:inkscape="http://www.inkscape.org/namespaces/inkscape"
   id="svg2"
   version="1.1"
   inkscape:version="0.91 r13725"
   xml:space="preserve"
   width="15.1682cm"
   height="5.0253253cm"
   viewBox="0 0 537.45589 178.06271"
   sodipodi:docname="iesbbooks.svg"><metadata
     id="metadata8"><rdf:RDF><cc:Work
         rdf:about=""><dc:format>image/svg+xml</dc:format><dc:type
           rdf:resource="http://purl.org/dc/dcmitype/StillImage" /><dc:title /></cc:Work></rdf:RDF></metadata><defs
     id="defs6"><clipPath
       clipPathUnits="userSpaceOnUse"
       id="clipPath18"><path
         d="m 0,0 1024,0 0,768 L 0,768 0,0 Z"
         id="path20"
         inkscape:connector-curvature="0" /></clipPath></defs><sodipodi:namedview
     pagecolor="#ffffff"
     bordercolor="#666666"
     borderopacity="1"
     objecttolerance="10"
     gridtolerance="10"
     guidetolerance="10"
     inkscape:pageopacity="0"
     inkscape:pageshadow="2"
     inkscape:window-width="1555"
     inkscape:window-height="871"
     id="namedview4"
     showgrid="false"
     fit-margin-top="0"
     fit-margin-left="0"
     fit-margin-right="0"
     fit-margin-bottom="0"
     units="cm"
     inkscape:zoom="1.9666666"
     inkscape:cx="303.43059"
     inkscape:cy="108.39752"
     inkscape:window-x="674"
     inkscape:window-y="246"
     inkscape:window-maximized="0"
     inkscape:current-layer="g10" /><g
     id="g10"
     inkscape:groupmode="layer"
     inkscape:label="iesbbooks"
     transform="matrix(1.25,0,0,-1.25,-20.298806,206.33496)"><g
       id="g12" /><path
       d="m 124.29991,105.40281 -0.2129,-50.972702 39.1894,-28.0234 1.8633,50.0528 -40.8398,28.943302 z"
       style="fill:#00a2ff;fill-opacity:1;fill-rule:nonzero;stroke:none"
       id="path24"
       inkscape:connector-curvature="0" /><g
       id="g26"
       transform="matrix(1,0,0,-1,124.08701,105.40281)"
       style="stroke:#000000"><path
         d="M 0.2128906,0 0,50.97266 39.18941,78.99603 41.05269,28.94329 0.2128906,0 Z"
         style="fill:none;stroke:#000000;stroke-width:4;stroke-linecap:butt;stroke-linejoin:miter;stroke-miterlimit:4;stroke-dasharray:none;stroke-opacity:1"
         id="path28"
         inkscape:connector-curvature="0" /></g><g
       id="g30"
       transform="translate(188.92881,59.830508)"
       style="fill:#000000"><text
         transform="scale(1,-1)"
         style="font-variant:normal;font-weight:bold;font-size:69px;font-family:Times;-inkscape-font-specification:Times-Bold;writing-mode:lr-tb;fill:#000000;fill-opacity:1;fill-rule:nonzero;stroke:none"
         id="text32"><tspan
           x="0 26.854799 72.8778"
           y="0"
           sodipodi:role="line"
           id="tspan34">IES</tspan></text>
</g><g
       id="g36"
       transform="translate(188.92881,59.830508)"><text
         transform="matrix(1,0,0,-1,111.249,0)"
         style="font-style:italic;font-variant:normal;font-weight:bold;font-size:69px;font-family:Times;-inkscape-font-specification:Times-BoldItalic;writing-mode:lr-tb;fill:#ee220c;fill-opacity:1;fill-rule:nonzero;stroke:none"
         id="text38"><tspan
           x="0"
           y="0"
           id="tspan40">B</tspan></text>
</g><g
       id="g42"
       transform="translate(188.92881,59.830508)"
       style="fill:#000000"><text
         transform="matrix(1,0,0,-1,157.2715,0)"
         style="font-variant:normal;font-weight:bold;font-size:36px;font-family:Verdana;-inkscape-font-specification:Verdana-Bold;writing-mode:lr-tb;fill:#000000;fill-opacity:1;fill-rule:nonzero;stroke:none"
         id="text44"><tspan
           x="0 24.714001 49.428001 73.566002"
           y="0"
           sodipodi:role="line"
           id="tspan46">ooks</tspan></text>
</g><path
       d="m 122.91381,104.42431 0.0306,-52.134802 51.7969,-0.9988 2.0671,51.833902 -53.8946,1.2997 z"
       style="fill:#1db100;fill-opacity:1;fill-rule:nonzero;stroke:none"
       id="path48"
       inkscape:connector-curvature="0" /><g
       id="g50"
       transform="matrix(1,0,0,-1,122.91381,104.42431)"
       style="stroke:#000000"><path
         d="M 0,0 0.03059896,52.13477 51.82747,53.13359 53.89461,1.299608 0,0 Z"
         style="fill:none;stroke:#000000;stroke-width:4;stroke-linecap:butt;stroke-linejoin:miter;stroke-miterlimit:4;stroke-dasharray:none;stroke-opacity:1"
         id="path52"
         inkscape:connector-curvature="0" /></g><path
       d="m 122.21591,106.07141 -0.998,-48.914702 38.6464,25.8756 1.7344,54.224602 -39.3828,-31.1855 z"
       style="fill:#ff9300;fill-opacity:1;fill-rule:nonzero;stroke:none"
       id="path54"
       inkscape:connector-curvature="0" /><g
       id="g56"
       transform="matrix(1,0,0,-1,121.21791,137.25691)"
       style="stroke:#000000"><path
         d="M 0.9980469,31.18553 0,80.10025 38.64648,54.22461 40.38086,0 0.9980469,31.18553 Z"
         style="fill:none;stroke:#000000;stroke-width:4;stroke-linecap:butt;stroke-linejoin:miter;stroke-miterlimit:4;stroke-dasharray:none;stroke-opacity:1"
         id="path58"
         inkscape:connector-curvature="0" /></g><path
       d="m 81.841214,75.716108 0.0645,-48.9278 38.646496,25.8757 2.1679,53.222002 -40.878896,-30.169902 z"
       style="fill:#ff9300;fill-opacity:1;fill-rule:nonzero;stroke:none"
       id="path60"
       inkscape:connector-curvature="0" /><g
       id="g62"
       transform="matrix(1,0,0,-1,81.841214,105.88601)"
       style="stroke:#000000"><path
         d="M 0,30.16991 0.06445312,79.09764 38.71094,53.22201 40.87891,0 0,30.16991 Z"
         style="fill:none;stroke:#000000;stroke-width:4;stroke-linecap:butt;stroke-linejoin:miter;stroke-miterlimit:4;stroke-dasharray:none;stroke-opacity:1"
         id="path64"
         inkscape:connector-curvature="0" /></g><path
       d="m 69.587014,105.95161 -0.1426,-52.162102 51.796896,-0.9988 1.6088,51.869102 -53.263096,1.2918 z"
       style="fill:#00a2ff;fill-opacity:1;fill-rule:nonzero;stroke:#000000"
       id="path66"
       inkscape:connector-curvature="0" /><g
       id="g68"
       transform="matrix(1,0,0,-1,69.444414,105.95161)"
       style="stroke:#000000"><path
         d="M 0.1425781,0 0,52.16211 51.79687,53.16094 53.40568,1.291796 0.1425781,0 Z"
         style="fill:none;stroke:#000000;stroke-width:4;stroke-linecap:butt;stroke-linejoin:miter;stroke-miterlimit:4;stroke-dasharray:none;stroke-opacity:1"
         id="path70"
         inkscape:connector-curvature="0" /></g><path
       d="m 81.749114,137.46921 -0.1621,-53.039102 39.189396,-28.0234 1.8633,50.052802 -40.890596,31.0097 z"
       style="fill:#1db100;fill-opacity:1;fill-rule:nonzero;stroke:none"
       id="path72"
       inkscape:connector-curvature="0" /><g
       id="g74"
       transform="matrix(1,0,0,-1,81.587014,137.46921)"
       style="stroke:#000000"><path
         d="M 0.1621094,0 0,53.03906 39.18941,81.06243 41.05269,31.0097 0.1621094,0 Z"
         style="fill:none;stroke:#000000;stroke-width:4;stroke-linecap:butt;stroke-linejoin:miter;stroke-miterlimit:4;stroke-dasharray:none;stroke-opacity:1"
         id="path76"
         inkscape:connector-curvature="0" /></g><path
       d="m 133.63581,157.75881 c 7.0955,-7.0955 7.0955,-18.5996 0,-25.6952 -7.0956,-7.0955 -18.5997,-7.0955 -25.6952,0 -7.0956,7.0956 -7.0956,18.5997 0,25.6952 7.0955,7.0956 18.5996,7.0956 25.6952,0 z"
       style="fill:#fffc66;fill-opacity:1;fill-rule:nonzero;stroke:none"
       id="path78"
       inkscape:connector-curvature="0" /><g
       id="g80"
       transform="matrix(1,0,0,-1,102.61891,163.08051)"
       style="stroke:#000000"><path
         d="m 31.01686,5.321651 c 7.09553,7.095539 7.09553,18.599669 0,25.695209 -7.09554,7.09553 -18.59967,7.09553 -25.695209,0 -7.095535,-7.09554 -7.095535,-18.59967 0,-25.695209 7.095539,-7.095535 18.599669,-7.095535 25.695209,0 z"
         style="fill:none;stroke:#000000;stroke-width:4;stroke-linecap:butt;stroke-linejoin:miter;stroke-miterlimit:4;stroke-dasharray:none;stroke-opacity:1"
         id="path82"
         inkscape:connector-curvature="0" /></g></g></svg>